# xmcd
#
# Track frame offsets:
#	150
#	11153
#	33487
#	48210
#	61763
#	74026
#	87450
#	99383
#	112073
#	127646
#	137381
#	149925
#	166200
#	178349
#	194943
#	207411
#	216419
#	232042
#	245539
#	258469
#
# Disc length: 3733 seconds
#
# Revision: 1
# Processed by: cddbd v1.5.2PL0 Copyright (c) Steve Scherf et al.
# Submitted via: audiograbber 1.83.01
#
DISCID=3d0e9314
DTITLE=Various Artist - Com Records Volume 1
DYEAR=1900
DGENRE=Country
TTITLE0=Kitty Wells - Meanwhile down at Joe's
TTITLE1=Donna Greaves - Feel the nails
TTITLE2=Keith Blocker - Talking about the king
TTITLE3=Tom and Beverly Grant - If I could put my feelings into words
TTITLE4=Friends of Faith - I've seen Heaven
TTITLE5=Tom Grant - Give thanks to God
TTITLE6=Randy Abright - Don't quit
TTITLE7=Tom Grant - Daddy do you have some time
TTITLE8=Charlotte Bradford - The road to Heaven
TTITLE9=Charlotte Bradford - Jesus you have changed my life
TTITLE10=Keith Bradford - My Indiana home
TTITLE11=Tom Grant - Dream memory
TTITLE12=S.A.P - Pretty as a woman can be
TTITLE13=JoAnne Brown - Holy christmas deity
TTITLE14=JoAnne Brown - You keep walkin by
TTITLE15=Bobby Price - Even after we're old
TTITLE16=Keith Bradford - At any cost
TTITLE17=Keith and Charlotte Bradford - Forever
TTITLE18=Jimmy Smart - Daddy has a job to do
TTITLE19=Jimmy Smart - We are the guys that win wars
EXTD=
EXTT0=
EXTT1=
EXTT2=
EXTT3=
EXTT4=
EXTT5=
EXTT6=
EXTT7=
EXTT8=
EXTT9=
EXTT10=
EXTT11=
EXTT12=
EXTT13=
EXTT14=
EXTT15=
EXTT16=
EXTT17=
EXTT18=
EXTT19=
PLAYORDER=
